<mxfile host="Electron" modified="2024-05-24T17:45:31.614Z" agent="Mozilla/5.0 (Windows NT 10.0; Win64; x64) AppleWebKit/537.36 (KHTML, like Gecko) draw.io/24.4.0 Chrome/120.0.6099.109 Electron/28.1.0 Safari/537.36" etag="_zuBeksWbkMezDCEVCOu" version="24.4.0" type="device">
  <diagram name="Pagina-1" id="GEODoxrNDZj81k7Mat4K">
    <mxGraphModel dx="858" dy="1618" grid="1" gridSize="10" guides="1" tooltips="1" connect="1" arrows="1" fold="1" page="1" pageScale="1" pageWidth="827" pageHeight="1169" math="0" shadow="0">
      <root>
        <mxCell id="0" />
        <mxCell id="1" parent="0" />
        <mxCell id="qxBmEfjTLd7Pq74-EzE--29" value="" style="rounded=0;whiteSpace=wrap;html=1;dashed=1;strokeColor=#F2F2F2;fillColor=none;movable=0;resizable=0;rotatable=0;deletable=0;editable=0;locked=1;connectable=0;" parent="1" vertex="1">
          <mxGeometry x="195" y="-120" width="1075" height="1240" as="geometry" />
        </mxCell>
        <mxCell id="CpOkGsx592RdYKSbdgCl-5" value="" style="endArrow=classic;html=1;rounded=0;exitX=0.25;exitY=1;exitDx=0;exitDy=0;entryX=0.5;entryY=0;entryDx=0;entryDy=0;" edge="1" parent="1" source="CpOkGsx592RdYKSbdgCl-1" target="vefhSrpmev-1LY_CgRd1-6">
          <mxGeometry width="50" height="50" relative="1" as="geometry">
            <mxPoint x="290" y="210" as="sourcePoint" />
            <mxPoint x="340" y="160" as="targetPoint" />
            <Array as="points">
              <mxPoint x="385" y="90" />
              <mxPoint x="320" y="90" />
            </Array>
          </mxGeometry>
        </mxCell>
        <mxCell id="CpOkGsx592RdYKSbdgCl-6" value="&amp;nbsp;SI&amp;nbsp;" style="edgeLabel;html=1;align=center;verticalAlign=middle;resizable=0;points=[];" vertex="1" connectable="0" parent="CpOkGsx592RdYKSbdgCl-5">
          <mxGeometry x="-0.8211" y="1" relative="1" as="geometry">
            <mxPoint x="-14" y="-1" as="offset" />
          </mxGeometry>
        </mxCell>
        <mxCell id="vefhSrpmev-1LY_CgRd1-1" value="START" style="ellipse;whiteSpace=wrap;html=1;" parent="1" vertex="1">
          <mxGeometry x="380" y="-179" width="70" height="50" as="geometry" />
        </mxCell>
        <mxCell id="vefhSrpmev-1LY_CgRd1-2" value="&lt;span style=&quot;background-color: initial;&quot;&gt;- Salva in TMP il primo valore da verificare&lt;/span&gt;&lt;br&gt;&lt;span style=&quot;background-color: initial;&quot;&gt;- Calcola e salva indirizzo base Vettore Indirizzi&lt;/span&gt;" style="rounded=0;whiteSpace=wrap;html=1;align=left;" parent="1" vertex="1">
          <mxGeometry x="285" y="-89" width="260" height="60" as="geometry" />
        </mxCell>
        <mxCell id="vefhSrpmev-1LY_CgRd1-3" value="" style="endArrow=classic;html=1;rounded=0;exitX=0.5;exitY=1;exitDx=0;exitDy=0;entryX=0.5;entryY=0;entryDx=0;entryDy=0;" parent="1" source="vefhSrpmev-1LY_CgRd1-1" target="vefhSrpmev-1LY_CgRd1-2" edge="1">
          <mxGeometry width="50" height="50" relative="1" as="geometry">
            <mxPoint x="390" y="1" as="sourcePoint" />
            <mxPoint x="440" y="-49" as="targetPoint" />
          </mxGeometry>
        </mxCell>
        <mxCell id="vefhSrpmev-1LY_CgRd1-4" value="Verifica DL di TMP con DL del prodotto da verificare" style="rounded=0;whiteSpace=wrap;html=1;" parent="1" vertex="1">
          <mxGeometry x="385" y="103" width="120" height="60" as="geometry" />
        </mxCell>
        <mxCell id="vefhSrpmev-1LY_CgRd1-5" value="" style="endArrow=classic;html=1;rounded=0;entryX=0.5;entryY=0;entryDx=0;entryDy=0;exitX=0.5;exitY=1;exitDx=0;exitDy=0;" parent="1" source="vefhSrpmev-1LY_CgRd1-2" target="CpOkGsx592RdYKSbdgCl-1" edge="1">
          <mxGeometry width="50" height="50" relative="1" as="geometry">
            <mxPoint x="260" y="51" as="sourcePoint" />
            <mxPoint x="310" y="1" as="targetPoint" />
          </mxGeometry>
        </mxCell>
        <mxCell id="vefhSrpmev-1LY_CgRd1-6" value="Controllo quanti prodotti sono stati verificati" style="rounded=0;whiteSpace=wrap;html=1;" parent="1" vertex="1">
          <mxGeometry x="260" y="401" width="120" height="60" as="geometry" />
        </mxCell>
        <mxCell id="vefhSrpmev-1LY_CgRd1-9" value="&lt;font style=&quot;font-size: 9px;&quot;&gt;Incrementa il puntatore al prodotto da verificare&lt;/font&gt;" style="rounded=0;whiteSpace=wrap;html=1;" parent="1" vertex="1">
          <mxGeometry x="258" y="620" width="124" height="40" as="geometry" />
        </mxCell>
        <mxCell id="vefhSrpmev-1LY_CgRd1-10" value="" style="endArrow=classic;html=1;rounded=0;exitX=0.25;exitY=1;exitDx=0;exitDy=0;entryX=0.5;entryY=0;entryDx=0;entryDy=0;" parent="1" source="vefhSrpmev-1LY_CgRd1-6" target="vefhSrpmev-1LY_CgRd1-9" edge="1">
          <mxGeometry width="50" height="50" relative="1" as="geometry">
            <mxPoint x="400" y="570" as="sourcePoint" />
            <mxPoint x="450" y="520" as="targetPoint" />
            <Array as="points">
              <mxPoint x="290" y="600" />
              <mxPoint x="320" y="600" />
            </Array>
          </mxGeometry>
        </mxCell>
        <mxCell id="vefhSrpmev-1LY_CgRd1-11" value="&amp;nbsp;PV &amp;lt; P&amp;nbsp;" style="edgeLabel;html=1;align=center;verticalAlign=middle;resizable=0;points=[];" parent="vefhSrpmev-1LY_CgRd1-10" vertex="1" connectable="0">
          <mxGeometry x="0.4362" y="-1" relative="1" as="geometry">
            <mxPoint x="1" y="-117" as="offset" />
          </mxGeometry>
        </mxCell>
        <mxCell id="vefhSrpmev-1LY_CgRd1-12" value="&lt;span style=&quot;background-color: initial;&quot;&gt;- Salva il valore dell&#39;indirizzo del prodotto salvato in TMP nel&amp;nbsp; &amp;nbsp; &amp;nbsp; &amp;nbsp; &amp;nbsp; Vettore Indirizzi&lt;/span&gt;&lt;br&gt;&lt;span style=&quot;background-color: initial;&quot;&gt;- Somma TMP.DU a Time&lt;/span&gt;&lt;br&gt;&lt;span style=&quot;background-color: initial;&quot;&gt;- Incrementa il puntatore al vettore allo slot indirizzo&amp;nbsp;successivo&lt;/span&gt;&lt;br&gt;&lt;span style=&quot;background-color: initial;&quot;&gt;- Resetta il puntatore al prodotto da verificare&amp;nbsp;&lt;/span&gt;&lt;div&gt;- Incrementa contatore indir&lt;span style=&quot;background-color: initial;&quot;&gt;z&lt;/span&gt;&lt;span style=&quot;background-color: initial;&quot;&gt;zi salvati&lt;/span&gt;&lt;/div&gt;" style="rounded=0;whiteSpace=wrap;html=1;align=left;fontStyle=0;horizontal=1;fontSize=9;" parent="1" vertex="1">
          <mxGeometry x="400" y="520" width="260" height="90" as="geometry" />
        </mxCell>
        <mxCell id="vefhSrpmev-1LY_CgRd1-13" value="" style="endArrow=classic;html=1;rounded=0;entryX=0.5;entryY=0;entryDx=0;entryDy=0;exitX=0.75;exitY=1;exitDx=0;exitDy=0;" parent="1" source="vefhSrpmev-1LY_CgRd1-6" target="vefhSrpmev-1LY_CgRd1-12" edge="1">
          <mxGeometry width="50" height="50" relative="1" as="geometry">
            <mxPoint x="350" y="580" as="sourcePoint" />
            <mxPoint x="640" y="520" as="targetPoint" />
            <Array as="points">
              <mxPoint x="350" y="500" />
              <mxPoint x="530" y="500" />
            </Array>
          </mxGeometry>
        </mxCell>
        <mxCell id="vefhSrpmev-1LY_CgRd1-14" value="PV &amp;gt;= P" style="edgeLabel;html=1;align=center;verticalAlign=middle;resizable=0;points=[];" parent="vefhSrpmev-1LY_CgRd1-13" vertex="1" connectable="0">
          <mxGeometry x="0.4362" y="-1" relative="1" as="geometry">
            <mxPoint x="-132" y="-21" as="offset" />
          </mxGeometry>
        </mxCell>
        <mxCell id="vefhSrpmev-1LY_CgRd1-21" value="" style="edgeStyle=orthogonalEdgeStyle;rounded=0;orthogonalLoop=1;jettySize=auto;html=1;" parent="1" source="vefhSrpmev-1LY_CgRd1-19" target="vefhSrpmev-1LY_CgRd1-6" edge="1">
          <mxGeometry relative="1" as="geometry">
            <Array as="points">
              <mxPoint x="445" y="380" />
              <mxPoint x="320" y="380" />
            </Array>
          </mxGeometry>
        </mxCell>
        <mxCell id="vefhSrpmev-1LY_CgRd1-19" value="Copia PV in TMP" style="rounded=0;whiteSpace=wrap;html=1;" parent="1" vertex="1">
          <mxGeometry x="397.5" y="314" width="95" height="30" as="geometry" />
        </mxCell>
        <mxCell id="vefhSrpmev-1LY_CgRd1-22" value="" style="endArrow=classic;html=1;rounded=0;exitX=0.5;exitY=1;exitDx=0;exitDy=0;entryX=0.5;entryY=0;entryDx=0;entryDy=0;" parent="1" source="vefhSrpmev-1LY_CgRd1-9" target="CpOkGsx592RdYKSbdgCl-1" edge="1">
          <mxGeometry width="50" height="50" relative="1" as="geometry">
            <mxPoint x="180" y="430" as="sourcePoint" />
            <mxPoint x="230" y="380" as="targetPoint" />
            <Array as="points">
              <mxPoint x="320" y="680" />
              <mxPoint x="240" y="680" />
              <mxPoint x="240" />
              <mxPoint x="415" />
            </Array>
          </mxGeometry>
        </mxCell>
        <mxCell id="vefhSrpmev-1LY_CgRd1-23" value="&amp;nbsp;Check prossimo prodotto&amp;nbsp;" style="edgeLabel;html=1;align=center;verticalAlign=middle;resizable=0;points=[];rotation=-90;" parent="vefhSrpmev-1LY_CgRd1-22" vertex="1" connectable="0">
          <mxGeometry x="0.4772" y="-3" relative="1" as="geometry">
            <mxPoint x="-13" y="158" as="offset" />
          </mxGeometry>
        </mxCell>
        <mxCell id="vefhSrpmev-1LY_CgRd1-27" value="" style="endArrow=classic;html=1;rounded=0;entryX=0.5;entryY=0;entryDx=0;entryDy=0;exitX=0.25;exitY=1;exitDx=0;exitDy=0;" parent="1" source="vefhSrpmev-1LY_CgRd1-4" target="vefhSrpmev-1LY_CgRd1-6" edge="1">
          <mxGeometry width="50" height="50" relative="1" as="geometry">
            <mxPoint x="230" y="290" as="sourcePoint" />
            <mxPoint x="280" y="240" as="targetPoint" />
            <Array as="points">
              <mxPoint x="415" y="250" />
              <mxPoint x="320" y="250" />
            </Array>
          </mxGeometry>
        </mxCell>
        <mxCell id="vefhSrpmev-1LY_CgRd1-29" value="Verifica chi ha la PR con valore maggiore" style="rounded=0;whiteSpace=wrap;html=1;" parent="1" vertex="1">
          <mxGeometry x="660" y="280" width="120" height="60" as="geometry" />
        </mxCell>
        <mxCell id="vefhSrpmev-1LY_CgRd1-43" value="TMP.DL &amp;lt; PV.DL" style="edgeLabel;html=1;align=center;verticalAlign=middle;resizable=0;points=[];" parent="1" vertex="1" connectable="0">
          <mxGeometry x="365" y="181.99809523809517" as="geometry">
            <mxPoint x="3" y="-2" as="offset" />
          </mxGeometry>
        </mxCell>
        <mxCell id="vefhSrpmev-1LY_CgRd1-48" value="Verifica ID" style="rounded=0;whiteSpace=wrap;html=1;" parent="1" vertex="1">
          <mxGeometry x="751" y="422" width="90" height="35" as="geometry" />
        </mxCell>
        <mxCell id="vefhSrpmev-1LY_CgRd1-49" value="" style="endArrow=classic;html=1;rounded=0;entryX=0.5;entryY=0;entryDx=0;entryDy=0;exitX=0.75;exitY=1;exitDx=0;exitDy=0;" parent="1" source="vefhSrpmev-1LY_CgRd1-29" target="vefhSrpmev-1LY_CgRd1-48" edge="1">
          <mxGeometry width="50" height="50" relative="1" as="geometry">
            <mxPoint x="700" y="490" as="sourcePoint" />
            <mxPoint x="750" y="440" as="targetPoint" />
            <Array as="points">
              <mxPoint x="750" y="390" />
              <mxPoint x="796" y="390" />
            </Array>
          </mxGeometry>
        </mxCell>
        <mxCell id="vefhSrpmev-1LY_CgRd1-50" value="&amp;nbsp;TMP.PR = PV.PR&amp;nbsp;" style="edgeLabel;html=1;align=center;verticalAlign=middle;resizable=0;points=[];" parent="vefhSrpmev-1LY_CgRd1-49" vertex="1" connectable="0">
          <mxGeometry x="0.4036" y="1" relative="1" as="geometry">
            <mxPoint x="6" y="12" as="offset" />
          </mxGeometry>
        </mxCell>
        <mxCell id="vefhSrpmev-1LY_CgRd1-51" value="Errore prodotto clone" style="rounded=0;whiteSpace=wrap;html=1;fontSize=9;" parent="1" vertex="1">
          <mxGeometry x="1055" y="524" width="90" height="30" as="geometry" />
        </mxCell>
        <mxCell id="vefhSrpmev-1LY_CgRd1-52" value="" style="endArrow=classic;html=1;rounded=0;entryX=0.5;entryY=0;entryDx=0;entryDy=0;exitX=0.723;exitY=1;exitDx=0;exitDy=0;exitPerimeter=0;" parent="1" source="vefhSrpmev-1LY_CgRd1-48" target="vefhSrpmev-1LY_CgRd1-51" edge="1">
          <mxGeometry width="50" height="50" relative="1" as="geometry">
            <mxPoint x="665" y="560" as="sourcePoint" />
            <mxPoint x="715" y="510" as="targetPoint" />
            <Array as="points">
              <mxPoint x="816" y="490" />
              <mxPoint x="1100" y="490" />
            </Array>
          </mxGeometry>
        </mxCell>
        <mxCell id="vefhSrpmev-1LY_CgRd1-54" value="&amp;nbsp;TMP.ID = PV.ID&amp;nbsp;" style="edgeLabel;html=1;align=center;verticalAlign=middle;resizable=0;points=[];" parent="vefhSrpmev-1LY_CgRd1-52" vertex="1" connectable="0">
          <mxGeometry x="0.6615" relative="1" as="geometry">
            <mxPoint x="-103" y="1" as="offset" />
          </mxGeometry>
        </mxCell>
        <mxCell id="vefhSrpmev-1LY_CgRd1-55" value="Verifica se la somma delle due DU con Time rimane minore di DL" style="rounded=0;whiteSpace=wrap;html=1;fontSize=9;" parent="1" vertex="1">
          <mxGeometry x="703" y="550" width="140" height="40" as="geometry" />
        </mxCell>
        <mxCell id="vefhSrpmev-1LY_CgRd1-56" value="" style="endArrow=classic;html=1;rounded=0;entryX=0.5;entryY=0;entryDx=0;entryDy=0;exitX=0.25;exitY=1;exitDx=0;exitDy=0;" parent="1" target="vefhSrpmev-1LY_CgRd1-55" edge="1" source="vefhSrpmev-1LY_CgRd1-48">
          <mxGeometry width="50" height="50" relative="1" as="geometry">
            <mxPoint x="773" y="480" as="sourcePoint" />
            <mxPoint x="705" y="440" as="targetPoint" />
            <Array as="points" />
          </mxGeometry>
        </mxCell>
        <mxCell id="vefhSrpmev-1LY_CgRd1-57" value="&amp;nbsp;TMP.ID != PV.ID&amp;nbsp;" style="edgeLabel;html=1;align=center;verticalAlign=middle;resizable=0;points=[];" parent="vefhSrpmev-1LY_CgRd1-56" vertex="1" connectable="0">
          <mxGeometry x="-0.1072" y="1" relative="1" as="geometry">
            <mxPoint x="-1" y="9" as="offset" />
          </mxGeometry>
        </mxCell>
        <mxCell id="vefhSrpmev-1LY_CgRd1-58" value="Salva quello con DU minore" style="rounded=0;whiteSpace=wrap;html=1;fontSize=9;" parent="1" vertex="1">
          <mxGeometry x="923" y="648.48" width="78" height="38" as="geometry" />
        </mxCell>
        <mxCell id="vefhSrpmev-1LY_CgRd1-59" value="" style="endArrow=classic;html=1;rounded=0;exitX=0.75;exitY=1;exitDx=0;exitDy=0;entryX=0.5;entryY=0;entryDx=0;entryDy=0;" parent="1" source="vefhSrpmev-1LY_CgRd1-55" target="vefhSrpmev-1LY_CgRd1-58" edge="1">
          <mxGeometry width="50" height="50" relative="1" as="geometry">
            <mxPoint x="915" y="670" as="sourcePoint" />
            <mxPoint x="965" y="620" as="targetPoint" />
            <Array as="points">
              <mxPoint x="808" y="600" />
              <mxPoint x="962" y="600" />
            </Array>
          </mxGeometry>
        </mxCell>
        <mxCell id="vefhSrpmev-1LY_CgRd1-60" value="SUM &amp;gt; DL" style="edgeLabel;html=1;align=center;verticalAlign=middle;resizable=0;points=[];" parent="vefhSrpmev-1LY_CgRd1-59" vertex="1" connectable="0">
          <mxGeometry x="-0.0048" y="-1" relative="1" as="geometry">
            <mxPoint x="59" y="19" as="offset" />
          </mxGeometry>
        </mxCell>
        <mxCell id="vefhSrpmev-1LY_CgRd1-61" value="&lt;font style=&quot;font-size: 8px;&quot;&gt;- Salva TMP&lt;/font&gt;&lt;div style=&quot;font-size: 8px;&quot;&gt;&lt;font style=&quot;font-size: 8px;&quot;&gt;- Incrementa il puntatore al prodotto da&amp;nbsp; &amp;nbsp; &amp;nbsp; verificare&lt;br&gt;&lt;/font&gt;&lt;/div&gt;&lt;div style=&quot;font-size: 8px;&quot;&gt;&lt;font style=&quot;font-size: 8px;&quot;&gt;- Verifica se il numero di indirizzi salvati&amp;nbsp; &amp;nbsp; &amp;nbsp; è minore del numero di prodotti&lt;/font&gt;&lt;/div&gt;&lt;div style=&quot;font-size: 8px;&quot;&gt;- Copia PV in TMP&lt;/div&gt;&lt;div style=&quot;font-size: 8px;&quot;&gt;- Ripete&lt;/div&gt;" style="rounded=0;whiteSpace=wrap;html=1;fontSize=9;align=left;" parent="1" vertex="1">
          <mxGeometry x="664" y="642.48" width="149" height="87.52" as="geometry" />
        </mxCell>
        <mxCell id="vefhSrpmev-1LY_CgRd1-62" value="" style="endArrow=classic;html=1;rounded=0;exitX=0.25;exitY=1;exitDx=0;exitDy=0;entryX=0.5;entryY=0;entryDx=0;entryDy=0;" parent="1" source="vefhSrpmev-1LY_CgRd1-55" target="vefhSrpmev-1LY_CgRd1-61" edge="1">
          <mxGeometry width="50" height="50" relative="1" as="geometry">
            <mxPoint x="711" y="580" as="sourcePoint" />
            <mxPoint x="868" y="620" as="targetPoint" />
            <Array as="points">
              <mxPoint x="738" y="600" />
            </Array>
          </mxGeometry>
        </mxCell>
        <mxCell id="vefhSrpmev-1LY_CgRd1-63" value="SUM &amp;lt;= DL" style="edgeLabel;html=1;align=center;verticalAlign=middle;resizable=0;points=[];" parent="vefhSrpmev-1LY_CgRd1-62" vertex="1" connectable="0">
          <mxGeometry x="-0.0048" y="-1" relative="1" as="geometry">
            <mxPoint x="1" as="offset" />
          </mxGeometry>
        </mxCell>
        <mxCell id="vefhSrpmev-1LY_CgRd1-64" value="&lt;font style=&quot;font-size: 8px;&quot;&gt;- Salva TMP&lt;/font&gt;&lt;div style=&quot;font-size: 8px;&quot;&gt;- Incrementa il puntatore al&amp;nbsp; &amp;nbsp; prodotto da verificare&lt;/div&gt;" style="rounded=0;whiteSpace=wrap;html=1;align=left;" parent="1" vertex="1">
          <mxGeometry x="783" y="795" width="101" height="49" as="geometry" />
        </mxCell>
        <mxCell id="vefhSrpmev-1LY_CgRd1-66" value="" style="endArrow=classic;html=1;rounded=0;entryX=0.5;entryY=0;entryDx=0;entryDy=0;exitX=0.243;exitY=0.995;exitDx=0;exitDy=0;exitPerimeter=0;" parent="1" source="vefhSrpmev-1LY_CgRd1-58" target="vefhSrpmev-1LY_CgRd1-64" edge="1">
          <mxGeometry width="50" height="50" relative="1" as="geometry">
            <mxPoint x="921" y="690" as="sourcePoint" />
            <mxPoint x="740" y="706.48" as="targetPoint" />
            <Array as="points">
              <mxPoint x="942" y="700" />
              <mxPoint x="833" y="700" />
            </Array>
          </mxGeometry>
        </mxCell>
        <mxCell id="nfPmhJvn8curub4lPYd_-12" value="TMP.DU &amp;lt; PV.DU" style="edgeLabel;html=1;align=center;verticalAlign=middle;resizable=0;points=[];" parent="vefhSrpmev-1LY_CgRd1-66" vertex="1" connectable="0">
          <mxGeometry x="-0.0743" y="1" relative="1" as="geometry">
            <mxPoint x="30" y="-1" as="offset" />
          </mxGeometry>
        </mxCell>
        <mxCell id="vefhSrpmev-1LY_CgRd1-71" value="" style="endArrow=classic;html=1;rounded=0;entryX=0.5;entryY=0;entryDx=0;entryDy=0;exitX=0.5;exitY=1;exitDx=0;exitDy=0;" parent="1" source="vefhSrpmev-1LY_CgRd1-29" target="vefhSrpmev-1LY_CgRd1-6" edge="1">
          <mxGeometry width="50" height="50" relative="1" as="geometry">
            <mxPoint x="580" y="380" as="sourcePoint" />
            <mxPoint x="720" y="445" as="targetPoint" />
            <Array as="points">
              <mxPoint x="720" y="380" />
              <mxPoint x="320" y="380" />
            </Array>
          </mxGeometry>
        </mxCell>
        <mxCell id="vefhSrpmev-1LY_CgRd1-73" value="" style="endArrow=classic;html=1;rounded=0;entryX=0.5;entryY=0;entryDx=0;entryDy=0;exitX=0.25;exitY=1;exitDx=0;exitDy=0;" parent="1" source="vefhSrpmev-1LY_CgRd1-29" target="vefhSrpmev-1LY_CgRd1-19" edge="1">
          <mxGeometry width="50" height="50" relative="1" as="geometry">
            <mxPoint x="600" y="380" as="sourcePoint" />
            <mxPoint x="445" y="287" as="targetPoint" />
            <Array as="points">
              <mxPoint x="690" y="360" />
              <mxPoint x="590" y="360" />
              <mxPoint x="590" y="290" />
              <mxPoint x="445" y="290" />
            </Array>
          </mxGeometry>
        </mxCell>
        <mxCell id="vefhSrpmev-1LY_CgRd1-74" value="&amp;nbsp;TMP.PR &amp;lt; PV.PR&amp;nbsp;" style="edgeLabel;html=1;align=center;verticalAlign=middle;resizable=0;points=[];" parent="1" vertex="1" connectable="0">
          <mxGeometry x="590" y="319.00476190476184" as="geometry">
            <mxPoint x="-3" y="2" as="offset" />
          </mxGeometry>
        </mxCell>
        <mxCell id="vefhSrpmev-1LY_CgRd1-75" value="&amp;nbsp;TMP.PR &amp;gt; PV.PR&amp;nbsp;" style="edgeLabel;html=1;align=center;verticalAlign=middle;resizable=0;points=[];" parent="1" vertex="1" connectable="0">
          <mxGeometry x="594" y="381.00476190476184" as="geometry">
            <mxPoint x="-6" y="-1" as="offset" />
          </mxGeometry>
        </mxCell>
        <mxCell id="r8-0i7yuEBl9hmYKN0jP-1" value="&lt;font style=&quot;font-size: 8px;&quot; color=&quot;#ff1808&quot;&gt;test_tmp_v:&lt;/font&gt;" style="text;html=1;align=center;verticalAlign=middle;whiteSpace=wrap;rounded=0;" parent="1" vertex="1">
          <mxGeometry x="378" y="92" width="60" height="30" as="geometry" />
        </mxCell>
        <mxCell id="r8-0i7yuEBl9hmYKN0jP-3" value="&lt;font style=&quot;font-size: 8px;&quot; color=&quot;#ff1808&quot;&gt;test_pr:&lt;/font&gt;" style="text;html=1;align=center;verticalAlign=middle;whiteSpace=wrap;rounded=0;" parent="1" vertex="1">
          <mxGeometry x="646" y="269" width="60" height="30" as="geometry" />
        </mxCell>
        <mxCell id="r8-0i7yuEBl9hmYKN0jP-4" value="&lt;font style=&quot;font-size: 8px;&quot; color=&quot;#ff1808&quot;&gt;test_id:&lt;/font&gt;" style="text;html=1;align=center;verticalAlign=middle;whiteSpace=wrap;rounded=0;" parent="1" vertex="1">
          <mxGeometry x="737" y="411" width="60" height="30" as="geometry" />
        </mxCell>
        <mxCell id="r8-0i7yuEBl9hmYKN0jP-5" value="&lt;font style=&quot;font-size: 8px;&quot; color=&quot;#ff1808&quot;&gt;test_du:&lt;/font&gt;" style="text;html=1;align=center;verticalAlign=middle;whiteSpace=wrap;rounded=0;" parent="1" vertex="1">
          <mxGeometry x="690" y="538" width="60" height="30" as="geometry" />
        </mxCell>
        <mxCell id="r8-0i7yuEBl9hmYKN0jP-6" value="&lt;font style=&quot;font-size: 8px;&quot; color=&quot;#ff1808&quot;&gt;test_v_num:&lt;/font&gt;" style="text;html=1;align=center;verticalAlign=middle;whiteSpace=wrap;rounded=0;" parent="1" vertex="1">
          <mxGeometry x="254" y="389" width="60" height="30" as="geometry" />
        </mxCell>
        <mxCell id="xTMcxJT7O3gV3GALlT8g-1" value="&lt;font style=&quot;font-size: 8px;&quot; color=&quot;#ff1808&quot;&gt;v_inc:&lt;/font&gt;" style="text;html=1;align=center;verticalAlign=middle;whiteSpace=wrap;rounded=0;" parent="1" vertex="1">
          <mxGeometry x="241" y="608" width="60" height="30" as="geometry" />
        </mxCell>
        <mxCell id="xTMcxJT7O3gV3GALlT8g-2" value="&lt;font style=&quot;font-size: 8px;&quot; color=&quot;#ff1808&quot;&gt;v_save:&lt;/font&gt;" style="text;html=1;align=center;verticalAlign=middle;whiteSpace=wrap;rounded=0;" parent="1" vertex="1">
          <mxGeometry x="388" y="509" width="60" height="30" as="geometry" />
        </mxCell>
        <mxCell id="xTMcxJT7O3gV3GALlT8g-3" value="&lt;font style=&quot;font-size: 8px;&quot; color=&quot;#ff1808&quot;&gt;v_save_both:&lt;/font&gt;" style="text;html=1;align=center;verticalAlign=middle;whiteSpace=wrap;rounded=0;" parent="1" vertex="1">
          <mxGeometry x="660" y="631" width="60" height="30" as="geometry" />
        </mxCell>
        <mxCell id="xTMcxJT7O3gV3GALlT8g-4" value="&lt;font style=&quot;font-size: 8px;&quot; color=&quot;#ff1808&quot;&gt;test_du_min&lt;/font&gt;" style="text;html=1;align=center;verticalAlign=middle;whiteSpace=wrap;rounded=0;" parent="1" vertex="1">
          <mxGeometry x="917" y="637" width="60" height="30" as="geometry" />
        </mxCell>
        <mxCell id="xTMcxJT7O3gV3GALlT8g-9" value="&lt;font style=&quot;font-size: 8px;&quot; color=&quot;#ff1808&quot;&gt;same_id_error:&lt;/font&gt;" style="text;html=1;align=center;verticalAlign=middle;whiteSpace=wrap;rounded=0;" parent="1" vertex="1">
          <mxGeometry x="1054" y="513" width="60" height="30" as="geometry" />
        </mxCell>
        <mxCell id="xTMcxJT7O3gV3GALlT8g-10" value="&lt;font style=&quot;font-size: 8px;&quot; color=&quot;#ff1808&quot;&gt;v_tmp_cpy:&lt;/font&gt;" style="text;html=1;align=center;verticalAlign=middle;whiteSpace=wrap;rounded=0;" parent="1" vertex="1">
          <mxGeometry x="390" y="302" width="60" height="30" as="geometry" />
        </mxCell>
        <mxCell id="nfPmhJvn8curub4lPYd_-2" value="&lt;font style=&quot;font-size: 8px;&quot;&gt;- Salva PV&lt;/font&gt;&lt;div style=&quot;font-size: 8px;&quot;&gt;- Incrementa il puntatore al&amp;nbsp; &amp;nbsp; prodotto da verificare&lt;/div&gt;" style="rounded=0;whiteSpace=wrap;html=1;align=left;" parent="1" vertex="1">
          <mxGeometry x="911.5" y="795" width="101" height="50" as="geometry" />
        </mxCell>
        <mxCell id="nfPmhJvn8curub4lPYd_-3" value="" style="endArrow=classic;html=1;rounded=0;exitX=0.5;exitY=1;exitDx=0;exitDy=0;entryX=0.5;entryY=0;entryDx=0;entryDy=0;" parent="1" source="vefhSrpmev-1LY_CgRd1-58" target="CpOkGsx592RdYKSbdgCl-21" edge="1">
          <mxGeometry width="50" height="50" relative="1" as="geometry">
            <mxPoint x="856" y="710" as="sourcePoint" />
            <mxPoint x="906" y="660" as="targetPoint" />
          </mxGeometry>
        </mxCell>
        <mxCell id="nfPmhJvn8curub4lPYd_-13" value="TMP.DU &amp;gt; PV.DU" style="edgeLabel;html=1;align=center;verticalAlign=middle;resizable=0;points=[];" parent="1" vertex="1" connectable="0">
          <mxGeometry x="961.0000771697319" y="716" as="geometry" />
        </mxCell>
        <mxCell id="nfPmhJvn8curub4lPYd_-14" value="&lt;font style=&quot;font-size: 8px;&quot; color=&quot;#ff1808&quot;&gt;test_du_min_l:&lt;/font&gt;" style="text;html=1;align=center;verticalAlign=middle;whiteSpace=wrap;rounded=0;" parent="1" vertex="1">
          <mxGeometry x="783" y="785" width="60" height="30" as="geometry" />
        </mxCell>
        <mxCell id="nfPmhJvn8curub4lPYd_-15" value="&lt;font style=&quot;font-size: 8px;&quot; color=&quot;#ff1808&quot;&gt;test_du_min_g:&lt;/font&gt;" style="text;html=1;align=center;verticalAlign=middle;whiteSpace=wrap;rounded=0;" parent="1" vertex="1">
          <mxGeometry x="913" y="785" width="60" height="30" as="geometry" />
        </mxCell>
        <mxCell id="qpRsF-1trQPcTH975Gw5-1" value="END" style="ellipse;whiteSpace=wrap;html=1;" parent="1" vertex="1">
          <mxGeometry x="1058" y="580" width="84" height="40" as="geometry" />
        </mxCell>
        <mxCell id="qpRsF-1trQPcTH975Gw5-2" value="" style="endArrow=classic;html=1;rounded=0;entryX=0.5;entryY=0;entryDx=0;entryDy=0;exitX=0.5;exitY=1;exitDx=0;exitDy=0;" parent="1" source="vefhSrpmev-1LY_CgRd1-51" target="qpRsF-1trQPcTH975Gw5-1" edge="1">
          <mxGeometry width="50" height="50" relative="1" as="geometry">
            <mxPoint x="945" y="590" as="sourcePoint" />
            <mxPoint x="995" y="540" as="targetPoint" />
          </mxGeometry>
        </mxCell>
        <mxCell id="qxBmEfjTLd7Pq74-EzE--1" value="" style="endArrow=none;html=1;rounded=0;exitX=0.75;exitY=1;exitDx=0;exitDy=0;entryDx=0;entryDy=0;endFill=0;" parent="1" source="qxBmEfjTLd7Pq74-EzE--11" target="qxBmEfjTLd7Pq74-EzE--18" edge="1">
          <mxGeometry width="50" height="50" relative="1" as="geometry">
            <mxPoint x="590" y="760" as="sourcePoint" />
            <mxPoint x="589" y="935" as="targetPoint" />
            <Array as="points" />
          </mxGeometry>
        </mxCell>
        <mxCell id="qxBmEfjTLd7Pq74-EzE--2" value="" style="endArrow=classic;html=1;rounded=0;exitX=0.25;exitY=1;exitDx=0;exitDy=0;entryX=0.5;entryY=0;entryDx=0;entryDy=0;" parent="1" source="qxBmEfjTLd7Pq74-EzE--6" target="CpOkGsx592RdYKSbdgCl-1" edge="1">
          <mxGeometry width="50" height="50" relative="1" as="geometry">
            <mxPoint x="120" y="680" as="sourcePoint" />
            <mxPoint x="445" y="210" as="targetPoint" />
            <Array as="points">
              <mxPoint x="528" y="1020" />
              <mxPoint x="240" y="1020" />
              <mxPoint x="240" />
              <mxPoint x="415" />
            </Array>
          </mxGeometry>
        </mxCell>
        <mxCell id="qxBmEfjTLd7Pq74-EzE--3" value="&amp;nbsp;ADDR_N &amp;lt; P&amp;nbsp;" style="edgeLabel;html=1;align=center;verticalAlign=middle;resizable=0;points=[];" parent="qxBmEfjTLd7Pq74-EzE--2" vertex="1" connectable="0">
          <mxGeometry x="-0.7023" relative="1" as="geometry">
            <mxPoint x="98" as="offset" />
          </mxGeometry>
        </mxCell>
        <mxCell id="qxBmEfjTLd7Pq74-EzE--4" value="" style="endArrow=classic;html=1;rounded=0;exitDx=0;exitDy=0;entryX=0.5;entryY=0;entryDx=0;entryDy=0;" parent="1" source="qxBmEfjTLd7Pq74-EzE--18" target="qxBmEfjTLd7Pq74-EzE--6" edge="1">
          <mxGeometry width="50" height="50" relative="1" as="geometry">
            <mxPoint x="543.66" y="680" as="sourcePoint" />
            <mxPoint x="428.66" y="210" as="targetPoint" />
            <Array as="points" />
          </mxGeometry>
        </mxCell>
        <mxCell id="qxBmEfjTLd7Pq74-EzE--5" value="NO" style="edgeLabel;html=1;align=center;verticalAlign=middle;resizable=0;points=[];" parent="qxBmEfjTLd7Pq74-EzE--4" vertex="1" connectable="0">
          <mxGeometry x="0.5888" relative="1" as="geometry">
            <mxPoint x="-2" y="-221" as="offset" />
          </mxGeometry>
        </mxCell>
        <mxCell id="qxBmEfjTLd7Pq74-EzE--6" value="Verifica se il numero di indirizzi salvati è minore del numero di prodotti" style="rounded=0;whiteSpace=wrap;html=1;" parent="1" vertex="1">
          <mxGeometry x="495.50000000000006" y="935" width="130" height="60" as="geometry" />
        </mxCell>
        <mxCell id="qxBmEfjTLd7Pq74-EzE--7" value="END" style="ellipse;whiteSpace=wrap;html=1;" parent="1" vertex="1">
          <mxGeometry x="551" y="1054" width="84" height="40" as="geometry" />
        </mxCell>
        <mxCell id="qxBmEfjTLd7Pq74-EzE--8" value="" style="endArrow=classic;html=1;rounded=0;entryX=0.5;entryY=0;entryDx=0;entryDy=0;exitX=0.75;exitY=1;exitDx=0;exitDy=0;" parent="1" source="qxBmEfjTLd7Pq74-EzE--6" target="qxBmEfjTLd7Pq74-EzE--7" edge="1">
          <mxGeometry width="50" height="50" relative="1" as="geometry">
            <mxPoint x="362" y="1184" as="sourcePoint" />
            <mxPoint x="412" y="1134" as="targetPoint" />
          </mxGeometry>
        </mxCell>
        <mxCell id="qxBmEfjTLd7Pq74-EzE--9" value="&amp;nbsp;ADDR_N = P&amp;nbsp;" style="edgeLabel;html=1;align=center;verticalAlign=middle;resizable=0;points=[];" parent="1" vertex="1" connectable="0">
          <mxGeometry x="593.0009523809523" y="1020" as="geometry">
            <mxPoint x="-5" y="-4" as="offset" />
          </mxGeometry>
        </mxCell>
        <mxCell id="qxBmEfjTLd7Pq74-EzE--10" value="&lt;font style=&quot;font-size: 8px;&quot; color=&quot;#ff1808&quot;&gt;test_s_num:&lt;/font&gt;" style="text;html=1;align=center;verticalAlign=middle;whiteSpace=wrap;rounded=0;" parent="1" vertex="1">
          <mxGeometry x="489.00000000000006" y="924" width="60" height="30" as="geometry" />
        </mxCell>
        <mxCell id="qxBmEfjTLd7Pq74-EzE--11" value="Verifica se ci sono ritardi&amp;nbsp;" style="rounded=0;whiteSpace=wrap;html=1;" parent="1" vertex="1">
          <mxGeometry x="470" y="641" width="120" height="50" as="geometry" />
        </mxCell>
        <mxCell id="qxBmEfjTLd7Pq74-EzE--12" value="Calcola e incrementa Penality" style="rounded=0;whiteSpace=wrap;html=1;" parent="1" vertex="1">
          <mxGeometry x="461.5" y="730" width="78" height="60" as="geometry" />
        </mxCell>
        <mxCell id="qxBmEfjTLd7Pq74-EzE--13" value="" style="endArrow=classic;html=1;rounded=0;exitX=0.25;exitY=1;exitDx=0;exitDy=0;entryX=0.5;entryY=0;entryDx=0;entryDy=0;" parent="1" source="qxBmEfjTLd7Pq74-EzE--11" target="qxBmEfjTLd7Pq74-EzE--12" edge="1">
          <mxGeometry width="50" height="50" relative="1" as="geometry">
            <mxPoint x="360" y="741" as="sourcePoint" />
            <mxPoint x="410" y="691" as="targetPoint" />
            <Array as="points" />
          </mxGeometry>
        </mxCell>
        <mxCell id="qxBmEfjTLd7Pq74-EzE--14" value="&amp;nbsp;SI&amp;nbsp;" style="edgeLabel;html=1;align=center;verticalAlign=middle;resizable=0;points=[];" parent="qxBmEfjTLd7Pq74-EzE--13" vertex="1" connectable="0">
          <mxGeometry x="-0.8173" y="-1" relative="1" as="geometry">
            <mxPoint x="1" y="13" as="offset" />
          </mxGeometry>
        </mxCell>
        <mxCell id="qxBmEfjTLd7Pq74-EzE--15" value="" style="endArrow=none;html=1;rounded=0;entryX=0.5;entryY=1;entryDx=0;entryDy=0;endFill=0;startArrow=none;startFill=0;exitX=-0.004;exitY=0.473;exitDx=0;exitDy=0;exitPerimeter=0;" parent="1" source="qxBmEfjTLd7Pq74-EzE--18" target="qxBmEfjTLd7Pq74-EzE--12" edge="1">
          <mxGeometry width="50" height="50" relative="1" as="geometry">
            <mxPoint x="540" y="890" as="sourcePoint" />
            <mxPoint x="400" y="789" as="targetPoint" />
            <Array as="points">
              <mxPoint x="500" y="900" />
            </Array>
          </mxGeometry>
        </mxCell>
        <mxCell id="qxBmEfjTLd7Pq74-EzE--16" value="&lt;font style=&quot;font-size: 8px;&quot; color=&quot;#ff1808&quot;&gt;test_r:&lt;/font&gt;" style="text;html=1;align=center;verticalAlign=middle;whiteSpace=wrap;rounded=0;" parent="1" vertex="1">
          <mxGeometry x="454" y="631" width="60" height="30" as="geometry" />
        </mxCell>
        <mxCell id="qxBmEfjTLd7Pq74-EzE--17" value="&lt;font style=&quot;font-size: 8px;&quot; color=&quot;#ff1808&quot;&gt;r_inc:&lt;/font&gt;" style="text;html=1;align=center;verticalAlign=middle;whiteSpace=wrap;rounded=0;" parent="1" vertex="1">
          <mxGeometry x="444" y="718" width="60" height="30" as="geometry" />
        </mxCell>
        <mxCell id="qxBmEfjTLd7Pq74-EzE--18" value="" style="shape=waypoint;sketch=0;fillStyle=solid;size=6;pointerEvents=1;points=[];fillColor=none;resizable=0;rotatable=0;perimeter=centerPerimeter;snapToPoint=1;" parent="1" vertex="1">
          <mxGeometry x="550.16" y="890" width="20" height="20" as="geometry" />
        </mxCell>
        <mxCell id="qxBmEfjTLd7Pq74-EzE--19" value="" style="endArrow=classic;html=1;rounded=0;entryX=0.5;entryY=0;entryDx=0;entryDy=0;exitX=0.5;exitY=1;exitDx=0;exitDy=0;" parent="1" source="vefhSrpmev-1LY_CgRd1-12" target="qxBmEfjTLd7Pq74-EzE--11" edge="1">
          <mxGeometry width="50" height="50" relative="1" as="geometry">
            <mxPoint x="310" y="720" as="sourcePoint" />
            <mxPoint x="360" y="670" as="targetPoint" />
          </mxGeometry>
        </mxCell>
        <mxCell id="qxBmEfjTLd7Pq74-EzE--20" value="&lt;font style=&quot;font-size: 8px;&quot;&gt;- Salva TMP&lt;/font&gt;&lt;div style=&quot;font-size: 8px;&quot;&gt;- Incrementa il puntatore al prodotto da&amp;nbsp; &amp;nbsp; &amp;nbsp; verificare&lt;br&gt;&lt;/div&gt;&lt;div style=&quot;font-size: 8px;&quot;&gt;- Verifica se il numero di indirizzi salvati&amp;nbsp; &amp;nbsp; &amp;nbsp; è minore del numero di prodotti&lt;/div&gt;&lt;div style=&quot;font-size: 8px;&quot;&gt;- Copia PV in TMP&lt;/div&gt;&lt;div style=&quot;font-size: 8px;&quot;&gt;- Ripete&lt;/div&gt;" style="rounded=0;whiteSpace=wrap;html=1;align=left;" parent="1" vertex="1">
          <mxGeometry x="1044.25" y="720" width="150.75" height="90" as="geometry" />
        </mxCell>
        <mxCell id="qxBmEfjTLd7Pq74-EzE--21" value="" style="endArrow=classic;html=1;rounded=0;entryX=0.5;entryY=0;entryDx=0;entryDy=0;exitX=0.758;exitY=0.999;exitDx=0;exitDy=0;exitPerimeter=0;" parent="1" target="qxBmEfjTLd7Pq74-EzE--20" edge="1">
          <mxGeometry width="50" height="50" relative="1" as="geometry">
            <mxPoint x="982" y="686" as="sourcePoint" />
            <mxPoint x="1105" y="640" as="targetPoint" />
            <Array as="points">
              <mxPoint x="982" y="700" />
              <mxPoint x="1120" y="700" />
            </Array>
          </mxGeometry>
        </mxCell>
        <mxCell id="qxBmEfjTLd7Pq74-EzE--22" value="&lt;font style=&quot;font-size: 10px;&quot;&gt;Calcola e incrementa Penality&lt;/font&gt;" style="rounded=0;whiteSpace=wrap;html=1;" parent="1" vertex="1">
          <mxGeometry x="1084.94" y="829" width="69.37" height="51" as="geometry" />
        </mxCell>
        <mxCell id="qxBmEfjTLd7Pq74-EzE--23" value="" style="endArrow=classic;html=1;rounded=0;entryX=0.5;entryY=0;entryDx=0;entryDy=0;exitX=0.5;exitY=1;exitDx=0;exitDy=0;" parent="1" source="qxBmEfjTLd7Pq74-EzE--20" target="qxBmEfjTLd7Pq74-EzE--22" edge="1">
          <mxGeometry width="50" height="50" relative="1" as="geometry">
            <mxPoint x="905" y="880" as="sourcePoint" />
            <mxPoint x="955" y="830" as="targetPoint" />
          </mxGeometry>
        </mxCell>
        <mxCell id="qxBmEfjTLd7Pq74-EzE--24" value="" style="endArrow=none;html=1;rounded=0;entryX=0.5;entryY=1;entryDx=0;entryDy=0;exitX=0.933;exitY=0.125;exitDx=0;exitDy=0;exitPerimeter=0;" parent="1" target="qxBmEfjTLd7Pq74-EzE--22" edge="1">
          <mxGeometry width="50" height="50" relative="1" as="geometry">
            <mxPoint x="590" y="900" as="sourcePoint" />
            <mxPoint x="1160" y="920" as="targetPoint" />
            <Array as="points">
              <mxPoint x="1120" y="900" />
            </Array>
          </mxGeometry>
        </mxCell>
        <mxCell id="qxBmEfjTLd7Pq74-EzE--25" value="&lt;font style=&quot;font-size: 8px;&quot; color=&quot;#ff1808&quot;&gt;r_inc:&lt;/font&gt;" style="text;html=1;align=center;verticalAlign=middle;whiteSpace=wrap;rounded=0;" parent="1" vertex="1">
          <mxGeometry x="1066" y="817" width="60" height="30" as="geometry" />
        </mxCell>
        <mxCell id="qxBmEfjTLd7Pq74-EzE--26" value="" style="endArrow=none;html=1;rounded=0;entryX=0.919;entryY=0.527;entryDx=0;entryDy=0;exitX=0.5;exitY=1;exitDx=0;exitDy=0;endFill=0;startArrow=none;startFill=0;entryPerimeter=0;" parent="1" edge="1" target="qxBmEfjTLd7Pq74-EzE--18" source="vefhSrpmev-1LY_CgRd1-64">
          <mxGeometry width="50" height="50" relative="1" as="geometry">
            <mxPoint x="877" y="851" as="sourcePoint" />
            <mxPoint x="590" y="900" as="targetPoint" />
            <Array as="points">
              <mxPoint x="834" y="900" />
            </Array>
          </mxGeometry>
        </mxCell>
        <mxCell id="qxBmEfjTLd7Pq74-EzE--27" value="" style="endArrow=none;html=1;rounded=0;exitX=0.5;exitY=1;exitDx=0;exitDy=0;" parent="1" edge="1" source="vefhSrpmev-1LY_CgRd1-61">
          <mxGeometry width="50" height="50" relative="1" as="geometry">
            <mxPoint x="739" y="720" as="sourcePoint" />
            <mxPoint x="835" y="900" as="targetPoint" />
            <Array as="points">
              <mxPoint x="739" y="900" />
            </Array>
          </mxGeometry>
        </mxCell>
        <mxCell id="qxBmEfjTLd7Pq74-EzE--28" value="" style="endArrow=none;html=1;rounded=0;entryX=0.5;entryY=1;entryDx=0;entryDy=0;" parent="1" edge="1" target="nfPmhJvn8curub4lPYd_-2">
          <mxGeometry width="50" height="50" relative="1" as="geometry">
            <mxPoint x="962" y="900" as="sourcePoint" />
            <mxPoint x="962" y="851" as="targetPoint" />
          </mxGeometry>
        </mxCell>
        <mxCell id="nfPmhJvn8curub4lPYd_-19" value="TMP.DU = PV.DU" style="edgeLabel;html=1;align=center;verticalAlign=middle;resizable=0;points=[];" parent="1" vertex="1" connectable="0">
          <mxGeometry x="1055.0002411041582" y="699.9999999999999" as="geometry" />
        </mxCell>
        <mxCell id="egWi5Mx8u3en4bp5mTZp-2" value="&lt;font style=&quot;font-size: 8px;&quot; color=&quot;#ff1808&quot;&gt;test_du_min_e:&lt;/font&gt;" style="text;html=1;align=center;verticalAlign=middle;whiteSpace=wrap;rounded=0;" parent="1" vertex="1">
          <mxGeometry x="1044.25" y="710" width="60" height="30" as="geometry" />
        </mxCell>
        <mxCell id="tCMj8UMZiCEkrmKn90E5-1" value="" style="endArrow=classic;html=1;rounded=0;exitX=0.5;exitY=1;exitDx=0;exitDy=0;entryX=0.5;entryY=0;entryDx=0;entryDy=0;" parent="1" source="vefhSrpmev-1LY_CgRd1-4" target="vefhSrpmev-1LY_CgRd1-19" edge="1">
          <mxGeometry width="50" height="50" relative="1" as="geometry">
            <mxPoint x="445" y="151" as="sourcePoint" />
            <mxPoint x="445" y="287" as="targetPoint" />
            <Array as="points" />
          </mxGeometry>
        </mxCell>
        <mxCell id="tCMj8UMZiCEkrmKn90E5-4" value="TMP.DL &amp;gt; PV.DL" style="edgeLabel;html=1;align=center;verticalAlign=middle;resizable=0;points=[];" parent="1" vertex="1" connectable="0">
          <mxGeometry x="445" y="268.9980952380952" as="geometry">
            <mxPoint x="1" y="-2" as="offset" />
          </mxGeometry>
        </mxCell>
        <mxCell id="CpOkGsx592RdYKSbdgCl-1" value="Verifica se l&#39;indirizzo&amp;nbsp; è già stato salvato" style="rounded=0;whiteSpace=wrap;html=1;" vertex="1" parent="1">
          <mxGeometry x="355" y="21" width="120" height="50" as="geometry" />
        </mxCell>
        <mxCell id="CpOkGsx592RdYKSbdgCl-2" value="&lt;font style=&quot;font-size: 8px;&quot; color=&quot;#ff1808&quot;&gt;test_s:&lt;/font&gt;" style="text;html=1;align=center;verticalAlign=middle;whiteSpace=wrap;rounded=0;" vertex="1" parent="1">
          <mxGeometry x="340" y="10" width="70" height="30" as="geometry" />
        </mxCell>
        <mxCell id="CpOkGsx592RdYKSbdgCl-3" value="" style="endArrow=classic;html=1;rounded=0;entryX=0.5;entryY=0;entryDx=0;entryDy=0;exitX=0.75;exitY=1;exitDx=0;exitDy=0;" edge="1" parent="1" source="CpOkGsx592RdYKSbdgCl-1" target="vefhSrpmev-1LY_CgRd1-4">
          <mxGeometry width="50" height="50" relative="1" as="geometry">
            <mxPoint x="90" y="80" as="sourcePoint" />
            <mxPoint x="140" y="30" as="targetPoint" />
          </mxGeometry>
        </mxCell>
        <mxCell id="CpOkGsx592RdYKSbdgCl-4" value="NO" style="edgeLabel;html=1;align=center;verticalAlign=middle;resizable=0;points=[];" vertex="1" connectable="0" parent="CpOkGsx592RdYKSbdgCl-3">
          <mxGeometry x="-0.193" relative="1" as="geometry">
            <mxPoint as="offset" />
          </mxGeometry>
        </mxCell>
        <mxCell id="CpOkGsx592RdYKSbdgCl-21" value="Copia PV in TMP" style="rounded=0;whiteSpace=wrap;html=1;" vertex="1" parent="1">
          <mxGeometry x="914.25" y="741" width="95" height="30" as="geometry" />
        </mxCell>
        <mxCell id="CpOkGsx592RdYKSbdgCl-22" value="&lt;font style=&quot;font-size: 8px;&quot; color=&quot;#ff1808&quot;&gt;v_tmp_cpy_du:&lt;/font&gt;" style="text;html=1;align=center;verticalAlign=middle;whiteSpace=wrap;rounded=0;" vertex="1" parent="1">
          <mxGeometry x="912.75" y="729" width="60" height="30" as="geometry" />
        </mxCell>
        <mxCell id="CpOkGsx592RdYKSbdgCl-23" value="" style="endArrow=classic;html=1;rounded=0;entryX=0.5;entryY=0;entryDx=0;entryDy=0;exitX=0.5;exitY=1;exitDx=0;exitDy=0;" edge="1" parent="1" source="CpOkGsx592RdYKSbdgCl-21" target="nfPmhJvn8curub4lPYd_-2">
          <mxGeometry width="50" height="50" relative="1" as="geometry">
            <mxPoint x="855" y="760" as="sourcePoint" />
            <mxPoint x="905" y="710" as="targetPoint" />
          </mxGeometry>
        </mxCell>
        <mxCell id="CpOkGsx592RdYKSbdgCl-24" value="" style="endArrow=classic;html=1;rounded=0;entryX=0.5;entryY=0;entryDx=0;entryDy=0;exitX=0.75;exitY=1;exitDx=0;exitDy=0;" edge="1" parent="1" source="vefhSrpmev-1LY_CgRd1-4" target="CpOkGsx592RdYKSbdgCl-25">
          <mxGeometry width="50" height="50" relative="1" as="geometry">
            <mxPoint x="475" y="163" as="sourcePoint" />
            <mxPoint x="720" y="280" as="targetPoint" />
            <Array as="points">
              <mxPoint x="475" y="180" />
              <mxPoint x="590" y="180" />
            </Array>
          </mxGeometry>
        </mxCell>
        <mxCell id="CpOkGsx592RdYKSbdgCl-25" value="" style="rounded=0;whiteSpace=wrap;html=1;" vertex="1" parent="1">
          <mxGeometry x="530" y="193" width="120" height="60" as="geometry" />
        </mxCell>
        <mxCell id="vefhSrpmev-1LY_CgRd1-32" value="&amp;nbsp;TMP.DL = PV.DL&amp;nbsp;" style="edgeLabel;html=1;align=center;verticalAlign=middle;resizable=0;points=[];" parent="1" vertex="1" connectable="0">
          <mxGeometry x="527" y="176.99857142857144" as="geometry">
            <mxPoint x="5" y="3" as="offset" />
          </mxGeometry>
        </mxCell>
        <mxCell id="CpOkGsx592RdYKSbdgCl-26" value="" style="endArrow=classic;html=1;rounded=0;exitX=0.75;exitY=1;exitDx=0;exitDy=0;entryX=0.5;entryY=0;entryDx=0;entryDy=0;" edge="1" parent="1" source="CpOkGsx592RdYKSbdgCl-25" target="vefhSrpmev-1LY_CgRd1-29">
          <mxGeometry width="50" height="50" relative="1" as="geometry">
            <mxPoint x="720" y="180" as="sourcePoint" />
            <mxPoint x="770" y="130" as="targetPoint" />
            <Array as="points">
              <mxPoint x="620" y="260" />
              <mxPoint x="720" y="260" />
            </Array>
          </mxGeometry>
        </mxCell>
      </root>
    </mxGraphModel>
  </diagram>
</mxfile>
